<?xml version="1.0" standalone="no"?>
<!DOCTYPE svg PUBLIC "-//W3C//DTD SVG 20010904//EN"
 "http://www.w3.org/TR/2001/REC-SVG-20010904/DTD/svg10.dtd">
<svg version="1.0" xmlns="http://www.w3.org/2000/svg"
 width="32.000000pt" height="32.000000pt" viewBox="0 0 32.000000 32.000000"
 preserveAspectRatio="xMidYMid meet">
<metadata>
Created by potrace 1.16, written by Peter Selinger 2001-2019
</metadata>
<g transform="translate(0.000000,32.000000) scale(0.100000,-0.100000)"
fill="#000000" stroke="none">
<path d="M63 288 c-38 -18 -30 -60 19 -102 23 -20 45 -36 50 -36 11 0 10 -47
-1 -54 -14 -9 -9 -76 6 -76 7 0 13 11 13 26 0 14 4 23 10 19 6 -3 10 -15 10
-26 0 -10 6 -19 13 -19 15 0 20 67 6 76 -12 7 -12 54 0 54 5 0 16 -16 25 -35
14 -28 23 -35 46 -35 23 0 33 7 45 30 19 36 19 50 1 50 -7 0 -16 -9 -19 -21
-4 -15 -12 -20 -29 -17 -13 2 -22 9 -20 16 1 7 -4 15 -12 18 -11 4 -6 13 20
36 43 38 47 79 9 96 -32 15 -162 14 -192 0z m151 -7 c21 -5 43 -14 48 -19 12
-12 -35 -68 -73 -88 -25 -13 -32 -13 -56 0 -39 20 -87 72 -79 85 16 25 97 36
160 22z"/>
</g>
</svg>
