<?xml version="1.0" standalone="no"?>
<!DOCTYPE svg PUBLIC "-//W3C//DTD SVG 20010904//EN"
 "http://www.w3.org/TR/2001/REC-SVG-20010904/DTD/svg10.dtd">
<svg version="1.0" xmlns="http://www.w3.org/2000/svg"
 width="32.000000pt" height="32.000000pt" viewBox="0 0 32.000000 32.000000"
 preserveAspectRatio="xMidYMid meet">
<metadata>
Created by potrace 1.16, written by Peter Selinger 2001-2019
</metadata>
<g transform="translate(0.000000,32.000000) scale(0.100000,-0.100000)"
fill="#000000" stroke="none">
<path d="M227 224 c-4 -4 -7 -52 -7 -106 0 -105 -17 -137 -22 -40 l-3 57 -35
0 -35 0 -3 -57 c-3 -62 -19 -79 -24 -25 -3 28 -7 32 -35 35 -28 3 -33 0 -38
-25 -4 -15 -10 -36 -16 -46 -9 -16 2 -17 152 -17 132 0 159 2 151 13 -6 7 -13
58 -14 113 l-3 99 -30 3 c-17 2 -34 0 -38 -4z"/>
</g>
</svg>
