<?xml version="1.0" standalone="no"?>
<!DOCTYPE svg PUBLIC "-//W3C//DTD SVG 20010904//EN"
 "http://www.w3.org/TR/2001/REC-SVG-20010904/DTD/svg10.dtd">
<svg version="1.0" xmlns="http://www.w3.org/2000/svg"
 width="32.000000pt" height="32.000000pt" viewBox="0 0 32.000000 32.000000"
 preserveAspectRatio="xMidYMid meet">
<metadata>
Created by potrace 1.16, written by Peter Selinger 2001-2019
</metadata>
<g transform="translate(0.000000,32.000000) scale(0.100000,-0.100000)"
fill="#000000" stroke="none">
<path d="M14 297 c-3 -8 -4 -39 -2 -68 l3 -54 68 -3 68 -3 -3 68 -3 68 -63 3
c-47 2 -64 -1 -68 -11z"/>
<path d="M177 304 c-4 -4 -7 -36 -7 -71 l0 -64 68 3 67 3 0 65 0 65 -60 3
c-34 2 -64 0 -68 -4z"/>
<path d="M14 136 c-3 -7 -4 -38 -2 -67 l3 -54 65 0 65 0 3 68 3 67 -66 0 c-46
0 -67 -4 -71 -14z"/>
<path d="M172 83 l3 -68 65 0 65 0 0 65 0 65 -68 3 -68 3 3 -68z"/>
</g>
</svg>
