<?xml version="1.0" standalone="no"?>
<!DOCTYPE svg PUBLIC "-//W3C//DTD SVG 20010904//EN"
 "http://www.w3.org/TR/2001/REC-SVG-20010904/DTD/svg10.dtd">
<svg version="1.0" xmlns="http://www.w3.org/2000/svg"
 width="32.000000pt" height="32.000000pt" viewBox="0 0 32.000000 32.000000"
 preserveAspectRatio="xMidYMid meet">
<metadata>
Created by potrace 1.16, written by Peter Selinger 2001-2019
</metadata>
<g transform="translate(0.000000,32.000000) scale(0.100000,-0.100000)"
fill="#000000" stroke="none">
<path d="M4 307 c-2 -7 -3 -78 -2 -157 l3 -145 88 -3 c69 -2 88 0 85 10 -3 8
-30 15 -74 18 l-69 5 0 125 0 125 69 5 c43 3 71 10 74 18 6 18 -167 17 -174
-1z"/>
<path d="M213 244 c-3 -8 4 -25 17 -39 l23 -24 -74 -3 c-58 -2 -74 -6 -74 -18
0 -12 17 -16 74 -20 73 -5 73 -5 52 -24 -23 -21 -27 -41 -10 -52 13 -8 99 74
99 95 0 16 -78 101 -92 101 -5 0 -11 -7 -15 -16z"/>
</g>
</svg>
