<?xml version="1.0" standalone="no"?>
<!DOCTYPE svg PUBLIC "-//W3C//DTD SVG 20010904//EN"
 "http://www.w3.org/TR/2001/REC-SVG-20010904/DTD/svg10.dtd">
<svg version="1.0" xmlns="http://www.w3.org/2000/svg"
 width="32.000000pt" height="32.000000pt" viewBox="0 0 32.000000 32.000000"
 preserveAspectRatio="xMidYMid meet">
<metadata>
Created by potrace 1.16, written by Peter Selinger 2001-2019
</metadata>
<g transform="translate(0.000000,32.000000) scale(0.100000,-0.100000)"
fill="#000000" stroke="none">
<path d="M0 306 c0 -8 10 -16 23 -18 18 -2 25 -15 41 -76 l19 -73 -22 -15
c-27 -19 -25 -54 4 -69 13 -7 19 -18 17 -33 -3 -20 0 -23 25 -20 22 2 28 8 26
26 -3 21 1 22 55 22 54 0 59 -2 58 -22 -1 -18 5 -23 24 -23 18 0 25 5 25 20 1
11 4 26 8 33 16 25 -6 32 -111 32 -73 0 -102 3 -92 10 8 5 36 10 62 10 26 0
50 5 53 10 3 6 21 10 40 10 33 0 35 3 50 52 29 100 32 98 -100 98 -104 0 -115
2 -125 20 -13 24 -80 29 -80 6z"/>
</g>
</svg>
