<?xml version="1.0" standalone="no"?>
<!DOCTYPE svg PUBLIC "-//W3C//DTD SVG 20010904//EN"
 "http://www.w3.org/TR/2001/REC-SVG-20010904/DTD/svg10.dtd">
<svg version="1.0" xmlns="http://www.w3.org/2000/svg"
 width="32.000000pt" height="32.000000pt" viewBox="0 0 32.000000 32.000000"
 preserveAspectRatio="xMidYMid meet">
<metadata>
Created by potrace 1.16, written by Peter Selinger 2001-2019
</metadata>
<g transform="translate(0.000000,32.000000) scale(0.100000,-0.100000)"
fill="#000000" stroke="none">
<path d="M30 280 c0 -22 -4 -40 -10 -40 -5 0 -10 -11 -10 -25 0 -14 5 -25 10
-25 6 0 10 -16 10 -35 0 -24 5 -35 15 -35 12 0 15 -13 15 -60 l0 -60 110 0
c93 0 112 3 117 16 4 10 -1 22 -10 29 -10 7 -17 26 -17 44 0 26 4 31 25 31 21
0 25 5 25 30 0 25 -4 30 -25 30 -23 0 -24 3 -27 68 l-3 67 -112 3 -113 3 0
-41z"/>
</g>
</svg>
